<?xml version="1.0" standalone="no"?>
<!DOCTYPE svg PUBLIC "-//W3C//DTD SVG 20010904//EN"
 "http://www.w3.org/TR/2001/REC-SVG-20010904/DTD/svg10.dtd">
<svg version="1.0" xmlns="http://www.w3.org/2000/svg"
 width="500.000000pt" height="500.000000pt" viewBox="0 0 500.000000 500.000000"
 preserveAspectRatio="xMidYMid meet">
<metadata>
Created by potrace 1.14, written by Peter Selinger 2001-2017
</metadata>
<g transform="translate(0.000000,500.000000) scale(0.100000,-0.100000)"
fill="#000000" stroke="none">
<path d="M846 3837 c-24 -83 -33 -133 -27 -135 6 -2 8 -9 5 -15 -5 -9 -3 -8 6
0 9 9 19 9 32 2 15 -8 23 -7 34 8 8 10 14 14 13 8 -3 -24 2 -27 17 -9 8 10 13
14 10 7 -4 -6 -2 -14 3 -17 5 -3 12 2 15 11 5 12 9 14 18 5 14 -14 32 -16 24
-4 -3 5 1 9 9 9 8 0 12 -4 10 -8 -3 -4 2 -10 11 -13 8 -3 12 -2 9 3 -3 5 -1
12 5 16 5 3 10 1 10 -4 0 -6 7 -11 16 -11 8 0 13 4 10 9 -7 11 21 8 31 -4 5
-4 1 -5 -7 0 -8 5 -12 4 -7 0 13 -15 39 -15 33 0 -3 9 0 12 9 8 8 -3 12 -10 8
-17 -4 -7 -1 -6 7 1 11 10 18 9 34 -5 11 -9 16 -11 12 -4 -11 18 5 15 21 -5 9
-12 12 -13 8 -3 -4 8 9 -2 29 -24 44 -47 50 -70 42 -155 -9 -100 -137 -614
-262 -1055 -133 -466 -229 -724 -302 -807 -60 -68 -235 -124 -436 -137 l-99
-7 -34 -120 c-19 -66 -43 -152 -53 -191 -11 -39 -22 -79 -26 -88 -4 -11 -1
-16 10 -16 10 0 16 -8 16 -21 0 -19 1 -19 16 -4 15 14 19 14 40 1 17 -12 25
-13 30 -4 4 7 3 8 -4 4 -8 -5 -10 -1 -5 9 4 12 8 13 13 5 4 -7 20 -10 39 -7
20 4 29 2 25 -5 -5 -7 -2 -8 7 -2 18 11 119 12 112 0 -8 -12 41 5 49 18 5 7 8
7 8 0 0 -5 -6 -16 -13 -23 -10 -10 -9 -11 6 -6 9 4 17 10 17 14 0 10 31 8 48
-3 7 -4 12 -2 12 6 1 8 7 5 16 -7 16 -19 16 -19 10 5 -6 20 -5 22 4 8 8 -13
17 -15 40 -8 17 5 32 10 33 12 2 2 15 -5 29 -14 19 -13 29 -15 34 -6 4 7 3 8
-4 4 -8 -5 -10 -1 -5 9 4 12 8 13 13 5 4 -7 20 -10 39 -7 20 4 29 2 25 -5 -5
-7 -2 -8 7 -2 18 11 119 12 112 0 -8 -12 41 5 49 18 5 7 8 7 8 0 0 -5 -6 -16
-12 -23 -11 -10 -10 -11 5 -6 9 4 17 10 17 14 0 10 31 8 48 -3 7 -4 12 -2 12
6 1 8 7 5 16 -7 16 -19 16 -19 10 5 -6 20 -5 22 4 8 8 -13 17 -15 40 -8 17 5
32 10 33 12 2 2 15 -5 29 -14 19 -13 29 -15 34 -6 4 7 3 8 -4 4 -8 -5 -10 -1
-5 9 4 12 8 13 13 5 4 -7 20 -10 39 -7 22 4 29 2 24 -6 -5 -9 -3 -9 8 -1 16
12 48 12 67 1 7 -5 12 -3 12 5 1 8 7 5 16 -7 16 -19 16 -19 10 5 -6 20 -5 22
4 8 8 -13 17 -15 40 -8 40 11 41 11 67 -5 16 -11 24 -12 29 -3 4 7 3 8 -4 4
-8 -5 -10 -1 -5 9 4 12 8 13 13 5 4 -7 20 -10 39 -7 20 4 29 2 25 -5 -5 -7 -2
-8 7 -2 18 11 119 12 112 0 -8 -12 41 5 49 18 5 7 8 7 8 0 0 -5 -6 -16 -12
-23 -11 -10 -10 -11 5 -6 9 4 17 10 17 14 0 10 31 8 48 -3 7 -4 12 -2 12 6 1
8 7 5 16 -7 16 -19 16 -19 10 5 -6 20 -5 22 4 8 8 -13 17 -15 40 -8 40 11 41
11 67 -5 16 -11 24 -12 29 -3 4 7 3 8 -4 4 -8 -5 -10 -1 -5 9 4 12 8 13 13 5
4 -7 20 -10 39 -7 20 4 29 2 25 -5 -5 -7 -2 -8 7 -2 18 11 119 12 112 0 -8
-12 41 5 49 18 5 7 8 7 8 0 0 -5 -6 -16 -12 -23 -11 -10 -10 -11 5 -6 9 4 17
10 17 14 0 10 31 8 48 -3 7 -4 12 -2 12 6 1 8 7 5 16 -7 16 -19 16 -19 10 5
-6 20 -5 22 4 8 7 -12 17 -15 38 -9 33 9 43 8 60 -2 6 -5 12 -5 12 0 0 4 13 8
29 8 16 1 28 -2 26 -6 -3 -3 7 -4 22 -1 20 4 24 2 19 -9 -4 -8 -1 -6 7 3 13
16 15 16 31 0 14 -14 17 -14 14 -2 -2 8 2 14 8 13 7 -1 14 7 17 17 3 11 1 20
-4 20 -5 0 -9 -5 -9 -12 0 -6 -3 -8 -7 -4 -5 4 1 14 11 22 11 8 14 14 8 14 -9
0 -10 5 -3 19 6 10 7 22 3 27 -4 5 0 3 9 -4 13 -10 15 -8 13 11 -1 12 -3 22
-4 22 -1 0 -3 8 -5 18 -2 10 3 21 11 24 8 3 13 12 9 20 -4 11 -1 13 11 9 14
-5 15 -4 4 9 -7 8 -9 15 -4 15 5 0 2 5 -6 10 -13 8 -12 10 4 10 15 0 16 3 7
14 -10 11 -8 17 6 25 14 8 15 11 3 11 -9 0 -6 6 9 14 15 8 20 16 12 20 -6 4
-11 2 -11 -4 0 -6 -5 -8 -11 -5 -6 5 -4 11 7 19 12 10 14 15 5 20 -8 5 -9 12
-2 19 19 24 -17 32 -154 34 -210 2 -365 44 -365 98 0 7 -6 16 -12 18 -10 4
-10 6 0 6 6 1 12 6 12 12 0 5 -5 7 -10 4 -6 -3 -10 -3 -11 2 -4 40 -3 70 2 68
3 -2 4 10 3 28 -1 18 -2 32 -3 32 -2 0 -4 12 -5 27 -1 14 2 24 6 22 3 -2 10 1
14 7 3 6 0 15 -7 20 -12 7 -12 9 0 9 10 0 11 3 2 14 -10 11 -8 17 6 25 10 6
14 11 8 11 -5 0 -3 5 5 10 12 8 12 10 1 10 -11 0 -11 3 -1 15 6 8 9 19 6 24
-4 5 -2 12 4 16 6 3 8 18 6 32 -4 18 -1 23 9 19 9 -3 12 0 8 9 -3 8 -10 12
-16 8 -6 -3 -7 -1 -3 5 4 7 15 12 24 12 13 0 13 2 -4 16 -10 8 -14 13 -7 9 7
-3 17 5 24 17 12 22 11 22 -6 8 -17 -13 -16 -10 3 21 25 41 28 53 10 44 -7 -4
-3 2 10 14 13 11 18 22 12 26 -5 3 -10 1 -10 -5 0 -6 -4 -8 -10 -5 -5 3 2 17
18 31 27 25 27 25 2 13 -25 -12 -25 -12 -7 8 10 11 17 24 16 29 -4 23 2 35 14
28 7 -5 6 0 -3 11 -13 17 -13 18 0 13 11 -4 16 1 17 13 1 13 -2 17 -10 12 -9
-5 -8 -2 0 9 7 8 9 19 5 23 -4 5 -2 5 4 2 16 -9 24 39 10 53 -8 8 -6 9 8 4 13
-5 17 -4 12 4 -3 6 -2 14 4 17 8 5 7 12 -2 23 -10 12 -10 14 0 8 6 -4 12 -3
12 3 0 5 3 17 7 27 5 13 3 15 -8 10 -8 -4 -6 -1 4 7 20 16 23 31 5 22 -7 -4
-5 0 5 8 14 11 15 16 5 20 -9 4 -7 6 4 6 14 1 15 6 8 30 -7 24 -5 29 6 24 12
-4 14 2 10 28 -3 19 -3 28 0 22 8 -18 21 -16 21 2 0 8 -5 15 -11 15 -5 0 -1 7
10 16 10 8 14 13 8 10 -18 -9 -9 36 11 50 18 13 14 18 -10 15 -5 -1 0 7 13 18
15 13 18 21 10 24 -10 4 -9 6 1 6 10 1 11 4 2 15 -9 11 -8 14 5 12 9 0 18 7
19 17 2 9 -1 17 -6 17 -6 0 -7 5 -4 10 4 6 11 8 16 5 5 -4 5 4 -1 19 -6 18 -6
27 3 32 7 4 9 4 5 -1 -4 -4 -1 -13 8 -20 14 -10 13 -19 -10 -86 -14 -41 -34
-105 -45 -144 -11 -38 -39 -133 -61 -210 -60 -201 -89 -309 -84 -314 9 -9
1546 -6 1552 3 3 5 6 195 6 421 l1 412 -113 82 c-61 45 -127 87 -144 92 -18 5
-248 9 -514 9 l-480 0 -45 -130 c-24 -71 -47 -130 -50 -130 -4 0 -9 9 -12 20
-4 14 0 20 11 20 10 0 13 3 7 8 -16 11 -16 32 -1 38 9 3 12 12 9 21 -4 10 -2
14 4 10 7 -5 9 1 5 15 -4 16 -2 19 8 13 10 -6 12 -4 7 8 -4 10 -1 17 6 18 7 0
3 4 -8 9 -17 7 -17 9 -2 9 10 1 17 9 17 21 0 11 5 20 11 20 5 0 7 5 4 10 -3 6
-1 10 4 10 6 0 11 5 11 11 0 5 -5 7 -12 3 -7 -4 -8 -3 -4 5 4 6 12 9 17 6 5
-4 9 2 9 12 0 14 2 15 9 5 6 -10 10 -8 16 10 4 12 7 26 6 31 -1 4 5 6 11 5 7
-2 12 4 12 13 -1 9 6 16 15 15 9 0 15 5 13 13 -2 9 4 12 22 9 19 -4 23 -1 18
11 -3 9 -1 12 3 8 5 -4 15 3 22 15 l14 23 -6 -25 c-5 -21 -4 -22 5 -7 6 9 15
15 21 12 5 -4 13 4 18 17 6 13 10 16 11 8 0 -13 1 -13 10 0 8 13 10 13 10 1 0
-11 4 -10 16 5 8 10 13 14 10 8 -7 -14 21 -27 29 -14 4 6 13 10 21 10 9 0 12
-5 8 -11 -5 -8 -2 -9 11 -2 18 10 65 -4 65 -20 0 -5 5 -5 10 -2 6 3 10 1 10
-5 0 -6 5 -8 10 -5 6 3 10 1 10 -4 0 -6 7 -11 15 -11 8 0 15 -4 15 -10 0 -5 7
-10 16 -10 8 0 13 -4 10 -8 -2 -4 5 -9 16 -9 11 -1 28 -8 37 -16 9 -8 22 -12
29 -10 6 3 12 -2 12 -10 0 -10 8 -13 25 -9 14 2 33 -2 42 -9 15 -12 16 -12 9
6 -6 16 -4 17 5 8 9 -9 16 -7 31 10 l19 22 -12 -25 -11 -25 25 25 c13 14 23
28 20 32 -2 4 2 5 10 2 9 -3 17 3 20 17 4 15 11 20 23 15 15 -6 15 -4 3 11 -9
10 -9 14 -2 10 15 -9 56 29 48 43 -3 6 1 7 9 4 10 -4 16 -1 16 9 0 9 5 19 12
23 7 5 8 3 3 -7 -8 -12 -6 -12 9 0 9 8 14 21 11 29 -4 12 -3 13 10 2 14 -12
20 -5 17 21 -1 4 6 6 16 5 9 0 16 5 14 12 -1 8 2 11 8 7 6 -3 8 -11 5 -16 -4
-5 -1 -9 4 -9 6 0 11 10 11 23 0 16 3 19 9 8 5 -8 18 -12 30 -8 12 3 21 1 21
-5 0 -5 5 -6 10 -3 5 3 10 1 10 -5 0 -6 4 -9 9 -6 9 6 54 -25 84 -58 9 -10 17
-16 17 -11 0 9 91 -90 166 -180 47 -57 86 -151 87 -207 1 -73 -21 -109 -86
-143 l-53 -28 0 -345 c1 -189 -2 -349 -6 -355 -5 -9 -180 -12 -657 -12 -357 0
-651 -2 -654 -5 -2 -3 -14 -45 -25 -95 -16 -66 -18 -92 -10 -100 8 -7 9 -6 4
3 -4 6 -2 12 3 12 6 0 11 -4 11 -10 0 -5 9 -10 19 -10 11 0 22 -6 24 -12 3 -8
6 -6 6 5 1 19 9 21 31 7 9 -6 17 -5 22 3 6 9 8 9 8 0 0 -7 5 -13 11 -13 5 0 7
6 3 13 -4 6 3 3 15 -7 17 -16 20 -16 16 -4 -4 9 -1 19 6 24 8 4 10 3 5 -4 -5
-8 0 -12 13 -12 12 0 21 -6 22 -12 0 -7 4 -5 8 6 7 18 8 18 26 0 18 -19 18
-18 13 4 -5 17 -3 21 5 14 19 -15 67 -21 67 -8 0 6 5 4 10 -4 8 -13 10 -12 10
3 0 17 1 17 16 3 19 -20 28 -21 21 -3 -3 8 1 14 9 14 7 0 11 -3 9 -7 -2 -3 5
-11 15 -18 16 -9 18 -9 14 2 -3 8 0 17 7 22 8 4 10 3 5 -4 -10 -16 7 -15 23 1
11 10 13 10 7 0 -4 -7 -2 -13 3 -13 6 0 11 6 11 13 0 8 4 7 10 -3 9 -13 10
-13 10 0 0 13 1 13 10 0 8 -12 11 -13 19 -1 7 11 9 11 14 0 3 -9 6 -7 6 6 1
16 3 17 10 5 6 -8 7 -19 3 -25 -3 -5 2 -4 11 4 19 15 23 26 5 15 -7 -5 -8 -3
-3 6 6 10 11 9 22 -5 7 -11 13 -14 13 -8 0 15 36 23 49 10 7 -7 11 -7 11 -1 0
6 10 10 23 9 12 -2 21 -8 19 -15 -3 -11 0 -11 12 -1 8 7 21 9 27 5 8 -4 9 -3
5 5 -6 9 3 11 34 7 35 -4 40 -3 26 7 -14 11 -14 12 8 12 17 0 22 -4 18 -15 -5
-12 -3 -13 9 -4 20 16 72 28 64 14 -3 -5 -1 -10 4 -10 6 0 11 8 11 18 1 16 1
16 11 -1 10 -18 12 -18 30 -1 12 11 19 13 19 5 0 -7 5 -9 10 -6 6 4 8 10 6 14
-3 4 1 8 9 8 8 0 12 -4 9 -9 -3 -4 0 -8 5 -8 6 0 11 5 11 11 0 5 5 7 12 3 17
-11 68 -12 62 -2 -3 5 -9 6 -14 3 -5 -3 -11 -1 -15 4 -3 6 6 8 21 5 19 -3 24
-1 18 8 -4 7 3 4 15 -6 16 -15 20 -16 16 -5 -4 10 0 16 9 16 8 0 13 -3 11 -7
-2 -4 2 -7 10 -7 8 0 12 4 9 8 -2 4 12 6 31 5 28 -3 33 0 25 10 -12 14 5 15
27 1 7 -4 16 0 22 10 6 11 11 13 11 5 0 -7 5 -10 10 -7 6 4 7 11 4 17 -4 6 2
6 15 -1 18 -10 21 -9 21 6 0 14 2 15 9 4 7 -11 9 -11 14 0 4 10 6 10 6 1 1
-13 26 -3 65 28 12 9 16 10 12 3 -4 -8 -1 -13 8 -13 10 0 13 6 9 18 -6 15 -5
16 12 2 17 -14 18 -13 12 4 -6 15 -5 17 7 7 11 -9 15 -8 19 4 4 9 13 12 23 8
13 -5 15 -3 9 7 -5 8 -4 11 3 6 5 -3 13 0 16 6 3 7 3 2 0 -12 -4 -21 -3 -22 6
-7 6 9 16 14 22 11 7 -5 9 -1 5 9 -4 12 -2 14 10 10 11 -4 14 -2 9 5 -5 8 -1
10 10 5 12 -4 15 -3 10 5 -5 8 -2 10 9 5 10 -3 21 0 26 8 7 12 9 12 9 -1 1
-12 3 -11 11 2 11 20 34 25 24 6 -4 -7 1 -4 9 6 9 11 16 25 16 30 0 6 4 5 9
-3 11 -17 34 -4 27 15 -3 8 -1 14 4 14 6 0 10 -6 10 -12 0 -8 8 -4 18 7 9 12
26 27 37 35 17 12 18 12 8 0 -23 -25 -14 -31 12 -8 14 12 25 26 25 32 0 6 -5
4 -10 -4 -6 -9 -10 -10 -10 -3 0 20 20 25 27 7 6 -15 7 -14 15 5 5 14 14 21
22 18 19 -8 28 3 16 18 -7 9 -5 12 7 12 33 0 43 3 43 13 0 5 -8 7 -17 4 -15
-5 -15 -4 1 6 14 10 20 9 28 -1 7 -10 8 -8 5 8 -4 17 -1 21 14 18 20 -4 44 28
34 45 -3 5 0 12 6 16 7 4 9 3 5 -4 -10 -17 7 -22 22 -6 10 10 10 14 1 14 -15
0 -1 15 14 15 7 1 11 7 9 14 -1 7 2 10 8 6 5 -3 14 5 20 19 7 19 14 24 27 19
15 -5 15 -3 -2 11 -11 10 -15 15 -8 12 6 -4 19 1 27 10 18 18 22 39 4 28 -7
-4 -8 -3 -4 5 6 9 11 9 21 1 11 -9 12 -6 7 12 -5 20 -3 21 10 11 12 -10 15
-10 15 2 0 8 -5 15 -10 15 -6 0 3 11 19 25 15 13 25 27 21 31 -4 4 -7 2 -7 -4
0 -7 -4 -12 -10 -12 -18 0 -10 19 11 25 14 5 19 13 16 26 -3 10 -1 17 3 14 5
-3 11 -1 15 5 3 5 2 10 -4 10 -5 0 -9 9 -8 19 0 11 5 17 9 15 5 -3 6 -9 4 -13
-3 -4 1 -8 8 -8 8 0 12 6 9 13 -2 6 0 15 6 19 8 4 8 12 1 26 -10 18 -6 23 13
20 5 -1 6 3 2 9 -3 5 -1 19 5 30 8 15 8 18 -3 14 -8 -3 -14 2 -14 10 0 8 6 12
14 9 9 -4 11 0 7 11 -4 10 -1 16 7 16 11 0 11 3 -1 10 -13 9 -13 11 0 20 8 5
10 10 4 10 -7 0 -15 7 -18 16 -6 15 -4 15 11 3 10 -7 15 -9 11 -5 -4 5 -2 16
5 24 8 11 8 14 0 9 -6 -4 -14 -3 -17 2 -3 5 2 12 12 16 16 6 16 7 -2 21 -11 8
-14 14 -8 14 7 0 12 5 12 11 0 5 -6 7 -12 3 -10 -6 -10 -4 0 7 14 15 16 33 3
25 -5 -4 -8 2 -6 11 2 10 4 18 5 18 1 0 3 8 5 18 2 9 -1 14 -7 11 -5 -3 -9 0
-7 7 4 34 -2 60 -12 53 -7 -4 -7 1 1 16 7 12 8 20 2 16 -5 -3 -13 1 -16 10 -3
8 -2 13 2 10 5 -3 9 1 9 8 0 9 -7 12 -16 8 -14 -5 -14 -4 -1 13 8 10 10 16 4
12 -7 -4 -17 6 -25 26 -7 17 -16 34 -20 37 -4 3 -9 12 -11 20 -2 8 -10 21 -18
28 -11 10 -11 12 -1 6 9 -5 12 -3 7 4 -4 7 -14 12 -22 12 -8 0 -14 4 -14 8 0
5 -11 22 -25 38 -14 16 -25 33 -25 38 0 5 -3 6 -6 3 -4 -3 -19 7 -34 23 -16
17 -31 30 -35 30 -4 0 -18 11 -31 26 -13 14 -24 22 -24 18 0 -4 -8 0 -18 8
-49 43 -314 163 -403 182 -13 3 -51 13 -84 21 -62 16 -141 32 -210 41 -22 3
-65 9 -95 14 -30 4 -688 8 -1461 8 l-1406 1 -37 -132z m3999 -986 c3 -5 2 -12
-3 -15 -5 -3 -9 1 -9 9 0 17 3 19 12 6z m-935 -751 c0 -5 -2 -10 -4 -10 -3 0
-8 5 -11 10 -3 6 -1 10 4 10 6 0 11 -4 11 -10z m-185 -50 c3 -6 -1 -7 -9 -4
-18 7 -21 14 -7 14 6 0 13 -4 16 -10z"/>
<path d="M2375 2760 c-3 -5 -1 -10 4 -10 6 0 11 5 11 10 0 6 -2 10 -4 10 -3 0
-8 -4 -11 -10z"/>
<path d="M2116 1753 c-6 -14 -5 -15 5 -6 7 7 10 15 7 18 -3 3 -9 -2 -12 -12z"/>
<path d="M2650 1426 c0 -2 7 -7 16 -10 8 -3 12 -2 9 4 -6 10 -25 14 -25 6z"/>
<path d="M2603 1205 c0 -8 4 -12 9 -9 5 3 6 10 3 15 -9 13 -12 11 -12 -6z"/>
<path d="M1266 1038 c3 -5 10 -6 15 -3 13 9 11 12 -6 12 -8 0 -12 -4 -9 -9z"/>
<path d="M2435 1040 c-3 -5 -1 -10 4 -10 6 0 11 5 11 10 0 6 -2 10 -4 10 -3 0
-8 -4 -11 -10z"/>
</g>
</svg>
